<?xml version="1.0" encoding="utf-8"?>
<!-- Generator: Adobe Illustrator 27.4.0, SVG Export Plug-In . SVG Version: 6.00 Build 0)  -->
<svg version="1.1" id="Layer_1" xmlns="http://www.w3.org/2000/svg" xmlns:xlink="http://www.w3.org/1999/xlink" x="0px" y="0px"
	 viewBox="0 0 704 660" style="enable-background:new 0 0 704 660;" xml:space="preserve">
<style type="text/css">
	.st0{fill:url(#SVGID_1_);}
	.st1{opacity:0.75;fill:#FFFFFF;enable-background:new    ;}
	.st2{opacity:0.6;fill:#FFFFFF;enable-background:new    ;}
</style>
<linearGradient id="SVGID_1_" gradientUnits="userSpaceOnUse" x1="220.4109" y1="705.4936" x2="473.4108" y2="-20.5064" gradientTransform="matrix(1 0 0 -1 0 657.8898)">
	<stop  offset="0" style="stop-color:#8BC34A"/>
	<stop  offset="1" style="stop-color:#357A38"/>
</linearGradient>
<path class="st0" d="M603,660H101C45.2,660,0,614.8,0,559V101C0,45.2,45.2,0,101,0h502c55.8,0,101,45.2,101,101v458
	C704,614.8,658.8,660,603,660z"/>
<g>
	<path class="st1" d="M343.5,384.6c-240.3-13.8-195-257.8-271-273.8c221.3-40.7,348,128,336.9,241.6l-1.9,32.2
		c0,0-15.9,156-27.9,221.3C364.5,526.9,343.5,384.6,343.5,384.6"/>
	<path class="st2" d="M432.8,318.6c-3.9-46.2-27-104.1-63.7-136.4c38.3-68.4,165.3-124,262.3-85.6
		C504.8,133.9,557.5,313.9,432.8,318.6z"/>
</g>
</svg>
